<?xml version="1.0" encoding="utf-8"?>
<!-- Generator: Adobe Illustrator 24.2.3, SVG Export Plug-In . SVG Version: 6.00 Build 0)  -->
<svg version="1.0" id="Layer_1" xmlns="http://www.w3.org/2000/svg" xmlns:xlink="http://www.w3.org/1999/xlink" x="0px" y="0px"
	 viewBox="0 0 85 70" style="enable-background:new 0 0 85 70;" xml:space="preserve">
<style type="text/css">
	.st0{fill:#FFFFFF;}
</style>
<g>
	<path class="st0" d="M34.4,30.2c0,3.2-0.7,5.3-2,6.3c-1,0.8-2.9,1.2-5.6,1.2h-3.6c-0.9,3.5-1.5,6-2,7.7c-0.8,3.2-1.2,5.8-1.2,7.9
		c0,1.4,0.4,2.6,1.3,3.4c0.8,0.8,2,1.2,3.5,1.2c0.8,0,1.9-0.3,3.4-0.9c1.5-0.6,2.6-0.9,3.4-0.9c0.5,0,1,0.2,1.4,0.5
		c0.4,0.4,0.7,0.8,0.7,1.4c0,2.8-2.6,5.4-7.7,7.8c-4.4,2-8.4,3-11.9,3c-3.5,0-6.5-0.9-8.9-2.8C2.4,64.1,1,61.4,1,58
		c0-2.4,0.7-5.7,2.1-10c1.9-5.9,3-9.4,3.2-10.3c-2.6-0.2-3.9-1.4-3.9-3.7c0-0.9,0.2-1.8,0.7-2.5c0.5-0.7,1.6-2,3.5-3.7l6.4-5.3
		c2.6-2.1,4.6-3.7,6.2-4.7c3-2,5.2-3,6.7-3c0.8,0,1.4,0.3,1.9,0.9c0.4,0.6,0.7,1.2,0.7,1.7c0,1.2-0.4,2.9-1.3,5
		c-0.8,2.1-1.3,3.7-1.4,4.8h5.1C33.2,27.2,34.4,28.2,34.4,30.2z"/>
	<path class="st0" d="M84,40.5c0,8-3,14.9-9.1,20.6s-13.2,8.5-21.4,8.5c-4.8,0-8.7-1.4-11.9-4.3c-3.2-2.9-4.8-6.6-4.8-11.4l0.3-3.4
		l7.8-37.6L45,11c0-0.9-0.1-1.6-0.3-2.1c-0.2-0.5-0.5-0.9-0.9-1.3c-0.6-0.4-1-0.6-1.2-0.8l0.5-0.5l0.6-0.4l1.2-0.9l2.4-1.5
		c1.9-1,3.6-1.8,5-2.3c1.4-0.5,3-0.8,4.7-0.8c1.6,0,3.1,0.5,4.6,1.4c1.4,0.9,2.1,2.2,2.1,3.7l-0.1,0.8l-4.8,24.2
		c1.9-1.3,3.8-2.3,5.6-3c1.8-0.7,3.8-1.1,5.8-1.1c4.2,0,7.5,1.3,10,3.9C82.7,33,84,36.3,84,40.5z M65.5,41.4c0-1-0.3-1.9-1-2.6
		c-0.7-0.7-1.5-1.1-2.6-1.1c-1.8,0-3.2,0.8-4.4,2.4c-1.2,1.6-1.8,3.4-1.8,5.3c0,1,0.3,1.9,0.9,2.7c0.6,0.8,1.4,1.1,2.5,1.1
		c1.9,0,3.4-0.8,4.6-2.4C64.9,45.1,65.5,43.4,65.5,41.4z"/>
</g>
</svg>
